<svg width="256" height="258" viewBox="0 0 256 258" fill="none" xmlns="http://www.w3.org/2000/svg">
<path d="M62.2 124.4C96.5521 124.4 124.4 96.5521 124.4 62.2C124.4 27.8479 96.5521 0 62.2 0C27.8479 0 0 27.8479 0 62.2C0 96.5521 27.8479 124.4 62.2 124.4Z" fill="black"/>
<path d="M193.73 124.4C228.082 124.4 255.93 96.5521 255.93 62.2C255.93 27.8479 228.082 0 193.73 0C159.378 0 131.53 27.8479 131.53 62.2C131.53 96.5521 159.378 124.4 193.73 124.4Z" fill="black"/>
<path d="M62.2 257.88C96.5521 257.88 124.4 230.032 124.4 195.68C124.4 161.328 96.5521 133.48 62.2 133.48C27.8479 133.48 0 161.328 0 195.68C0 230.032 27.8479 257.88 62.2 257.88Z" fill="black"/>
<path d="M193.73 257.88C228.082 257.88 255.93 230.032 255.93 195.68C255.93 161.328 228.082 133.48 193.73 133.48C159.378 133.48 131.53 161.328 131.53 195.68C131.53 230.032 159.378 257.88 193.73 257.88Z" fill="black"/>
</svg>
