<?xml version="1.0" encoding="UTF-8"?>
<svg width="1542" height="1548" viewBox="0 0 2000 2000" xmlns="http://www.w3.org/2000/svg">
  <defs>
    <style>
      .cls-1 {
        fill: #dd6c4a;
      }
    </style>
  </defs>
  <g>
    <path class="cls-1" d="M821.59,945.49c25.45,0,42.91,12.97,50.9,27.19v-24.95h22.95v136.72h-22.95v-25.45c-8.23,14.72-25.95,27.69-51.15,27.69-36.43,0-64.62-28.69-64.62-71.11s28.19-70.11,64.87-70.11ZM826.08,965.2c-24.95,0-46.16,18.21-46.16,50.4s21.21,51.15,46.16,51.15,46.41-18.71,46.41-50.9-21.46-50.65-46.41-50.65Z"/>
    <path class="cls-1" d="M938.84,966.44h-17.71v-18.71h17.71v-34.43h22.71v34.43h35.68v18.71h-35.68v80.59c0,13.47,4.99,18.21,18.96,18.21h16.72v19.21h-20.46c-24.2,0-37.92-9.98-37.92-37.43v-80.59Z"/>
    <path class="cls-1" d="M1084.29,1086.7c-38.67,0-68.11-27.45-68.11-70.86s30.44-70.36,69.11-70.36,69.11,27.19,69.11,70.36-31.19,70.86-70.11,70.86ZM1084.29,1066.74c23.7,0,46.9-16.22,46.9-50.9s-22.7-50.65-46.16-50.65-45.66,16.22-45.66,50.65,21.21,50.9,44.91,50.9Z"/>
    <path class="cls-1" d="M1381.67,1007.11c0-27.94-14.97-42.16-37.42-42.16s-38.67,14.72-38.67,44.16v75.35h-22.45v-77.34c0-27.94-14.97-42.16-37.43-42.16s-38.67,14.72-38.67,44.16v75.35h-22.71v-136.72h22.71v19.71c8.98-14.47,25.2-22.21,43.16-22.21,22.45,0,41.17,9.98,50.15,30.44,7.98-19.71,27.45-30.44,48.4-30.44,31.19,0,55.39,19.46,55.39,58.63v80.59h-22.45v-77.34Z"/>
    <path class="cls-1" d="M1497.67,945.49c25.45,0,42.91,12.97,50.9,27.19v-24.95h22.95v136.72h-22.95v-25.45c-8.23,14.72-25.95,27.69-51.15,27.69-36.43,0-64.62-28.69-64.62-71.11s28.19-70.11,64.87-70.11ZM1502.16,965.2c-24.95,0-46.16,18.21-46.16,50.4s21.21,51.15,46.16,51.15,46.41-18.71,46.41-50.9-21.46-50.65-46.41-50.65Z"/>
  </g>
  <g>
    <circle class="cls-1" cx="494.26" cy="929.42" r="65.78"/>
    <circle class="cls-1" cx="633.36" cy="929.42" r="65.78"/>
    <circle class="cls-1" cx="494.26" cy="1070.58" r="65.78"/>
    <circle class="cls-1" cx="633.36" cy="1070.58" r="65.78"/>
  </g>
</svg>
