<svg width="272" height="274" viewBox="0 0 272 274" fill="none" xmlns="http://www.w3.org/2000/svg">
<path d="M66.26 132.2C102.589 132.2 132.04 102.749 132.04 66.4201C132.04 30.0908 102.589 0.640137 66.26 0.640137C29.9307 0.640137 0.47998 30.0908 0.47998 66.4201C0.47998 102.749 29.9307 132.2 66.26 132.2Z" fill="#DD6C4A"/>
<path d="M205.36 132.2C241.689 132.2 271.14 102.749 271.14 66.4201C271.14 30.0908 241.689 0.640137 205.36 0.640137C169.031 0.640137 139.58 30.0908 139.58 66.4201C139.58 102.749 169.031 132.2 205.36 132.2Z" fill="#DD6C4A"/>
<path d="M66.26 273.36C102.589 273.36 132.04 243.91 132.04 207.58C132.04 171.251 102.589 141.8 66.26 141.8C29.9307 141.8 0.47998 171.251 0.47998 207.58C0.47998 243.91 29.9307 273.36 66.26 273.36Z" fill="#DD6C4A"/>
<path d="M205.36 273.36C241.689 273.36 271.14 243.91 271.14 207.58C271.14 171.251 241.689 141.8 205.36 141.8C169.031 141.8 139.58 171.251 139.58 207.58C139.58 243.91 169.031 273.36 205.36 273.36Z" fill="#DD6C4A"/>
</svg>
