<?xml version="1.0" encoding="UTF-8"?>
<svg width="1542" height="1548" viewBox="0 0 2000 2000" xmlns="http://www.w3.org/2000/svg">
  <defs>
    <style>
      .cls-1 {
        fill: #dd6c4a;
      }
    </style>
  </defs>
  <g>
    <path class="cls-1" d="M8215.9,9454.9c254.5,0,429.1,129.7,509,271.9v-249.5h229.5v1367.2h-229.5v-254.5c-82.3,147.2-259.5,276.9-511.5,276.9-364.3,0-646.2-286.9-646.2-711.1s281.9-701.1,648.7-701.1ZM8260.8,9652c-249.5,0-461.6,182.1-461.6,504s212.1,511.5,461.6,511.5,464.1-187.1,464.1-509-214.6-506.5-464.1-506.5Z"/>
    <path class="cls-1" d="M9388.4,9664.4h-177.1v-187.1h177.1v-344.3h227.1v344.3h356.8v187.1h-356.8v805.9c0,134.7,49.9,182.1,189.6,182.1h167.2v192.1h-204.6c-242,0-379.2-99.8-379.2-374.3v-805.9Z"/>
    <path class="cls-1" d="M10842.9,10867c-386.7,0-681.1-274.5-681.1-708.6s304.4-703.6,691.1-703.6,691.1,271.9,691.1,703.6-311.9,708.6-701.1,708.6ZM10842.9,10667.4c237,0,469-162.2,469-509s-227-506.5-461.6-506.5-456.6,162.2-456.6,506.5,212.1,509,449.1,509Z"/>
    <path class="cls-1" d="M13816.7,10071.1c0-279.4-149.7-421.6-374.2-421.6s-386.7,147.2-386.7,441.6v753.5h-224.5v-773.4c0-279.4-149.7-421.6-374.3-421.6s-386.7,147.2-386.7,441.6v753.5h-227.1v-1367.2h227.1v197.1c89.8-144.7,252-222.1,431.6-222.1,224.5,0,411.7,99.8,501.5,304.4,79.8-197.1,274.5-304.4,484-304.4,311.9,0,553.9,194.6,553.9,586.3v805.9h-224.5v-773.4Z"/>
    <path class="cls-1" d="M14976.7,9454.9c254.5,0,429.1,129.7,509,271.9v-249.5h229.5v1367.2h-229.5v-254.5c-82.3,147.2-259.5,276.9-511.5,276.9-364.3,0-646.2-286.9-646.2-711.1s281.9-701.1,648.7-701.1ZM15021.6,9652c-249.5,0-461.6,182.1-461.6,504s212.1,511.5,461.6,511.5,464.1-187.1,464.1-509-214.6-506.5-464.1-506.5Z"/>
  </g>
  <g>
    <circle class="cls-1" cx="4942.6" cy="9294.2" r="657.8"/>
    <circle class="cls-1" cx="6333.6" cy="9294.2" r="657.8"/>
    <circle class="cls-1" cx="4942.6" cy="10705.8" r="657.8"/>
    <circle class="cls-1" cx="6333.6" cy="10705.8" r="657.8"/>
  </g>
</svg>
