<svg width="512" height="512" viewBox="0 0 512 512" fill="none" xmlns="http://www.w3.org/2000/svg">
<rect width="512" height="512" fill="url(#paint0_linear_527_6880)"/>
<path d="M201.21 252.225C229.832 252.225 253.035 229.023 253.035 200.402C253.035 171.78 229.832 148.578 201.21 148.578C172.588 148.578 149.385 171.78 149.385 200.402C149.385 229.023 172.588 252.225 201.21 252.225Z" fill="#0F112E"/>
<path d="M310.792 252.225C339.414 252.225 362.617 229.023 362.617 200.402C362.617 171.78 339.414 148.578 310.792 148.578C282.17 148.578 258.967 171.78 258.967 200.402C258.967 229.023 282.17 252.225 310.792 252.225Z" fill="#0F112E"/>
<path d="M201.21 363.422C229.832 363.422 253.035 340.22 253.035 311.599C253.035 282.978 229.832 259.775 201.21 259.775C172.588 259.775 149.385 282.978 149.385 311.599C149.385 340.22 172.588 363.422 201.21 363.422Z" fill="#0F112E"/>
<path d="M310.792 363.422C339.414 363.422 362.617 340.22 362.617 311.599C362.617 282.978 339.414 259.775 310.792 259.775C282.17 259.775 258.967 282.978 258.967 311.599C258.967 340.22 282.17 363.422 310.792 363.422Z" fill="#0F112E"/>
<defs>
<linearGradient id="paint0_linear_527_6880" x1="256" y1="0" x2="256" y2="512" gradientUnits="userSpaceOnUse">
<stop stop-color="#EDF3FF"/>
<stop offset="1" stop-color="#C5D4FF"/>
</linearGradient>
</defs>
</svg>
