<?xml version="1.0" encoding="UTF-8"?>
<svg width="1542" height="1548" viewBox="6076 12872 17992 4255" xmlns="http://www.w3.org/2000/svg">
  <g>
    <path d="M12469.65,14226.9c360.9,0,608.7,184.05,721.8,385.65v-353.85h325.5v1939.2h-325.5v-360.9c-116.7,208.8-367.95,392.85-725.4,392.85-516.6,0-916.5-406.95-916.5-1008.45s399.9-994.35,919.95-994.35ZM12533.25,14506.35c-353.85,0-654.6,258.3-654.6,714.75s300.75,725.4,654.6,725.4,658.2-265.35,658.2-721.95-304.35-718.35-658.2-718.35Z" fill="black"/>
    <path d="M14132.55,14524.05h-251.25v-265.35h251.25v-488.4h322.05v488.4h505.95v265.35h-505.95v1143c0,191.1,70.8,258.3,268.95,258.3h237.15v272.4h-290.1c-343.2,0-537.9-141.6-537.9-530.85v-1143Z" fill="black"/>
    <path d="M16195.35,16229.7c-548.55,0-966,-389.25-966,-1005s431.7-997.8,980.25-997.8,980.25,385.65,980.25,997.8-442.35,1005-994.35,1005ZM16195.35,15946.65c336.15,0,665.25-229.95,665.25-721.95s-322.05-718.35-654.6-718.35-647.55,229.95-647.55,718.35,300.75,721.95,636.9,721.95Z" fill="black"/>
    <path d="M20413.2,15100.8c0-396.3-212.25-598.05-530.7-598.05s-548.4,208.8-548.4,626.4v1068.6h-318.45v-1096.95c0-396.3-212.25-598.05-530.85-598.05s-548.4,208.8-548.4,626.4v1068.6h-322.05v-1939.2h322.05v279.6c127.35-205.2,357.45-315,612.15-315,318.45,0,583.8,141.6,711.3,431.7,113.25-279.6,389.25-431.7,686.55-431.7,442.35,0,785.55,276,785.55,831.6v1143h-318.45v-1096.95Z" fill="black"/>
    <path d="M22058.4,14226.9c360.9,0,608.7,184.05,721.8,385.65v-353.85h325.5v1939.2h-325.5v-360.9c-116.7,208.8-367.95,392.85-725.4,392.85-516.6,0-916.5-406.95-916.5-1008.45s399.9-994.35,919.95-994.35ZM22122,14506.35c-353.85,0-654.6,258.3-654.6,714.75s300.75,725.4,654.6,725.4,658.2-265.35,658.2-721.95-304.35-718.35-658.2-718.35Z" fill="black"/>
  </g>
  <g>
    <circle cx="7827.15" cy="13998.9" r="933" fill="black"/>
    <circle cx="9800.1" cy="13998.9" r="933" fill="black"/>
    <circle cx="7827.15" cy="16001.1" r="933" fill="black"/>
    <circle cx="9800.1" cy="16001.1" r="933" fill="black"/>

  </g>
</svg>
