<?xml version="1.0" encoding="UTF-8"?>
<svg version="1.1" xmlns="http://www.w3.org/2000/svg" width="2823" height="1000">
<path d="M0 0 C10.20273029 8.77734885 17.15844646 19.87583926 23.78125 31.48046875 C24.42562012 32.60751221 25.06999023 33.73455566 25.73388672 34.89575195 C56.47465985 89.03776154 76.43317126 148.71773865 85.34375 210.29296875 C85.44480042 210.98275818 85.54585083 211.67254761 85.64996338 212.38323975 C88.9549163 235.19607445 89.97166253 257.81301541 89.90625 280.85546875 C89.90402738 282.24021396 89.90185087 283.62495924 89.89971924 285.00970459 C89.85718231 304.95661697 89.50939441 324.6477168 86.59375 344.41796875 C86.49429077 345.10906738 86.39483154 345.80016602 86.2923584 346.51220703 C72.9519358 439.10862005 36.70098718 527.63600106 -37.40625 615.41796875 C-38.00735596 616.10391113 -38.60846191 616.78985352 -39.2277832 617.49658203 C-45.30401507 624.35386726 -51.69300678 630.85827263 -58.18139648 637.32348633 C-59.9730095 639.10971545 -61.75918055 640.90126222 -63.54492188 642.69335938 C-69.32842681 648.48057622 -75.13495364 654.15405872 -81.40625 659.41796875 C-82.46284624 660.33002684 -83.51886136 661.24275869 -84.57421875 662.15625 C-152.1116039 719.73339982 -235.83374167 760.13793404 -339.28125 777.16796875 C-339.97103943 777.26901917 -340.66082886 777.37006958 -341.371521 777.47418213 C-364.1843557 780.77913505 -386.80129666 781.79588128 -409.84375 781.73046875 C-411.22849521 781.72824613 -412.61324049 781.72606962 -413.99798584 781.72393799 C-433.94489822 781.68140106 -453.63599805 781.33361316 -473.40625 778.41796875 C-474.09734863 778.31850952 -474.78844727 778.21905029 -475.50048828 778.11657715 C-540.86276799 768.69979301 -603.95016516 748.28484647 -661.21875 715.16796875 C-662.17894043 714.61375244 -663.13913086 714.05953613 -664.12841797 713.48852539 C-683.10737221 702.30290155 -697.6726821 689.27291895 -703.97265625 667.45654297 C-709.11780766 646.95403339 -705.11627663 625.72033244 -694.74243927 607.62563038 C-688.09509134 596.64283378 -679.41388911 588.01412365 -670.36132812 579.0324707 C-668.842281 577.51427121 -667.32389695 575.99540802 -665.80612183 574.47593689 C-661.71010829 570.37906726 -657.60495188 566.29147392 -653.49801826 562.2055552 C-649.19782847 557.92419686 -644.90620721 553.63426648 -640.61364746 549.34526062 C-632.49550033 541.23641499 -624.36974044 533.1352432 -616.24117804 525.03683966 C-606.98249833 515.81176304 -597.73239777 506.57810426 -588.4829874 497.34373534 C-569.46690014 478.35895416 -550.4401312 459.38490875 -531.40625 440.41796875 C-527.32637221 442.71938414 -523.44813971 445.04026894 -519.62988281 447.76586914 C-479.27468395 476.20313746 -425.79191492 485.48749021 -377.5769043 477.77539062 C-323.98854633 468.3926988 -277.84836497 438.55642468 -246.40625 394.41796875 C-216.94943407 351.17930063 -205.44845673 297.70883179 -214.47265625 246.16796875 C-220.33921828 215.3006327 -232.76339954 186.70325215 -251.40625 161.41796875 C-247.49259352 156.73840957 -243.42907995 152.29219067 -239.11558533 147.98013306 C-238.51118183 147.37205287 -237.90677834 146.76397269 -237.28405958 146.13746583 C-235.27627699 144.11874918 -233.26500479 142.10354802 -231.25366211 140.08837891 C-229.80572519 138.63416963 -228.35797622 137.17977319 -226.91040039 135.72520447 C-222.17171423 130.9655696 -217.42777584 126.21118697 -212.68359375 121.45703125 C-211.04505229 119.81443897 -209.40654398 118.17181364 -207.76806831 116.52915573 C-200.06861628 108.8106732 -192.36676946 101.09459018 -184.66197008 93.38144553 C-175.79205673 84.50176388 -166.93048076 75.61386967 -158.07591242 66.71888697 C-151.21477263 59.82751657 -144.34590732 52.94390735 -137.47128874 46.06598318 C-133.3731057 41.96545792 -129.27824487 37.86174415 -125.19154167 33.74977493 C-121.34339445 29.87821988 -117.48568113 26.01645148 -113.62070465 22.1616993 C-112.21166318 20.75315018 -110.80597758 19.34123385 -109.40410805 17.92554665 C-80.77488905 -10.96977614 -35.86092417 -28.5170647 0 0 Z " fill="#A63FEF" transform="translate(910.40625,218.58203125)"/>
<path d="M0 0 C1.38474521 0.00222262 2.76949049 0.00439913 4.15423584 0.00653076 C24.10114822 0.04906769 43.79224805 0.39685559 63.5625 3.3125 C64.25359863 3.41195923 64.94469727 3.51141846 65.65673828 3.6138916 C131.01901799 13.03067574 194.10641516 33.44562228 251.375 66.5625 C252.81528564 67.39382446 252.81528564 67.39382446 254.28466797 68.24194336 C273.26362221 79.4275672 287.8289321 92.4575498 294.12890625 114.27392578 C299.27405766 134.77643536 295.27252663 156.01013631 284.89868927 174.10483837 C278.25134134 185.08763497 269.57013911 193.7163451 260.51757812 202.69799805 C258.998531 204.21619754 257.48014695 205.73506073 255.96237183 207.25453186 C251.86635829 211.35140149 247.76120188 215.43899483 243.65426826 219.52491355 C239.35407847 223.80627189 235.06245721 228.09620227 230.76989746 232.38520813 C222.65175033 240.49405376 214.52599044 248.59522555 206.39742804 256.69362909 C197.13874833 265.91870571 187.88864777 275.15236449 178.6392374 284.38673341 C159.62315014 303.37151459 140.5963812 322.34556 121.5625 341.3125 C117.48262221 339.01108461 113.60438971 336.69019981 109.78613281 333.96459961 C69.43093395 305.52733129 15.94816492 296.24297854 -32.2668457 303.95507812 C-85.85520367 313.33776995 -131.99538503 343.17404407 -163.4375 387.3125 C-192.89431593 430.55116812 -204.39529327 484.02163696 -195.37109375 535.5625 C-189.50453172 566.42983605 -177.08035046 595.0272166 -158.4375 620.3125 C-162.35115648 624.99205918 -166.41467005 629.43827808 -170.72816467 633.75033569 C-171.33256817 634.35841588 -171.93697166 634.96649606 -172.55969042 635.59300292 C-174.56747301 637.61171957 -176.57874521 639.62692073 -178.59008789 641.64208984 C-180.03802481 643.09629912 -181.48577378 644.55069556 -182.93334961 646.00526428 C-187.67203577 650.76489915 -192.41597416 655.51928178 -197.16015625 660.2734375 C-198.79869771 661.91602978 -200.43720602 663.55865511 -202.07568169 665.20131302 C-209.77513372 672.91979555 -217.47698054 680.63587857 -225.18177992 688.34902322 C-234.05169327 697.22870487 -242.91326924 706.11659908 -251.76783758 715.01158178 C-258.62897737 721.90295218 -265.49784268 728.7865614 -272.37246126 735.66448557 C-276.4706443 739.76501083 -280.56550513 743.8687246 -284.65220833 747.98069382 C-288.50035555 751.85224887 -292.35806887 755.71401727 -296.22304535 759.56876945 C-297.63208682 760.97731857 -299.03777242 762.3892349 -300.43964195 763.8049221 C-319.25846802 782.798666 -338.99760737 795.47170458 -366.5 795.6875 C-385.7486504 795.52170249 -401.49755 789.7165414 -415.59375 776.51171875 C-422.8794838 768.72853881 -428.36785182 759.46169658 -433.625 750.25 C-434.59155518 748.55943481 -434.59155518 748.55943481 -435.57763672 746.8347168 C-466.31840985 692.69270721 -486.27692126 633.0127301 -495.1875 571.4375 C-495.28855042 570.74771057 -495.38960083 570.05792114 -495.49371338 569.347229 C-498.7986663 546.5343943 -499.81541253 523.91745334 -499.75 500.875 C-499.74777738 499.49025479 -499.74560087 498.10550951 -499.74346924 496.72076416 C-499.70093231 476.77385178 -499.35314441 457.08275195 -496.4375 437.3125 C-496.28831116 436.27585205 -496.28831116 436.27585205 -496.1361084 435.21826172 C-482.7956858 342.6218487 -446.54473718 254.09446769 -372.4375 166.3125 C-371.53584106 165.28358643 -371.53584106 165.28358643 -370.6159668 164.23388672 C-364.53973493 157.37660149 -358.15074322 150.87219612 -351.66235352 144.40698242 C-349.8707405 142.6207533 -348.08456945 140.82920653 -346.29882812 139.03710938 C-340.51532319 133.24989253 -334.70879636 127.57641003 -328.4375 122.3125 C-327.38090376 121.40044191 -326.32488864 120.48771006 -325.26953125 119.57421875 C-257.7321461 61.99706893 -174.01000833 21.59253471 -70.5625 4.5625 C-69.87271057 4.46144958 -69.18292114 4.36039917 -68.472229 4.25628662 C-45.6593943 0.9513337 -23.04245334 -0.06541253 0 0 Z " fill="#E193FE" transform="translate(499.4375,-0.3125)"/>
<path d="M0 0 C7.15804932 6.37784672 13.45600865 12.64728624 18.2578125 21.01171875 C18.9178125 21.34171875 19.5778125 21.67171875 20.2578125 22.01171875 C20.47953125 21.31433594 20.70125 20.61695313 20.9296875 19.8984375 C28.3060123 3.8657786 48.54847906 -7.69619387 64.2578125 -13.98828125 C89.91589486 -22.93820368 118.29219831 -20.22636523 142.6328125 -8.67578125 C148.81504261 -5.42677723 154.08689394 -1.66673138 159.2578125 3.01171875 C160.01578125 3.676875 160.77375 4.34203125 161.5546875 5.02734375 C180.17853392 22.36678697 187.25350298 47.98507731 188.435215 72.72589111 C188.50030752 76.43997782 188.50589006 80.14869822 188.48486328 83.86328125 C188.48429694 85.26463818 188.48462006 86.6659957 188.48574829 88.06735229 C188.48631413 91.81427333 188.47468694 95.56106215 188.46060038 99.30795288 C188.44796236 103.24500835 188.44691235 107.182068 188.44454956 111.11914062 C188.43837272 118.54890645 188.4220142 125.9786123 188.40185058 133.4083519 C188.37515613 143.46627252 188.36448821 153.52420994 188.35284615 163.58215714 C188.33413014 179.39205579 188.29425948 195.20182798 188.2578125 211.01171875 C165.1578125 211.01171875 142.0578125 211.01171875 118.2578125 211.01171875 C118.20882812 201.74335938 118.15984375 192.475 118.109375 182.92578125 C118.07398098 177.04686578 118.03809616 171.16796006 118 165.2890625 C117.93965086 155.96209961 117.88128007 146.635155 117.8359375 137.30810547 C117.80290086 130.51431009 117.76300601 123.72059472 117.71502244 116.92688787 C117.68987293 113.33275886 117.66805822 109.73868214 117.65446854 106.14448929 C117.63913456 102.12306558 117.60848303 98.10189348 117.57666016 94.08056641 C117.57449997 92.90092316 117.57233978 91.72127991 117.57011414 90.50588989 C117.42520555 76.12876184 114.88456588 63.81891526 104.671875 53.20703125 C95.80243621 45.14129565 84.14002976 42.36002174 72.33203125 42.73046875 C60.68836873 43.79570852 50.69918931 47.09883758 42.4453125 55.63671875 C36.20261975 63.29619284 33.16375487 72.92021783 33.09959412 82.70014954 C33.0898053 83.8345195 33.08001648 84.96888947 33.06993103 86.13763428 C33.06417557 87.37265686 33.0584201 88.60767944 33.05249023 89.88012695 C33.04259064 91.18783554 33.03269104 92.49554413 33.02249146 93.84288025 C32.99551351 97.42096307 32.97446558 100.99905898 32.95448947 104.57718682 C32.93258593 108.31948229 32.90521865 112.06173772 32.87843323 115.80400085 C32.82856532 122.88700587 32.78360465 129.97003318 32.74041086 137.05308169 C32.68174401 146.62688509 32.61548891 156.20063579 32.54966068 165.77439213 C32.44617833 180.85346547 32.35282783 195.93258418 32.2578125 211.01171875 C9.1578125 211.01171875 -13.9421875 211.01171875 -37.7421875 211.01171875 C-37.79117187 201.74335938 -37.84015625 192.475 -37.890625 182.92578125 C-37.92601902 177.04686578 -37.96190384 171.16796006 -38 165.2890625 C-38.06034914 155.96209961 -38.11871993 146.635155 -38.1640625 137.30810547 C-38.19709914 130.51431009 -38.23699399 123.72059472 -38.28497756 116.92688787 C-38.31012707 113.33275886 -38.33194178 109.73868214 -38.34553146 106.14448929 C-38.36086544 102.12306558 -38.39151697 98.10189348 -38.42333984 94.08056641 C-38.42550003 92.90092316 -38.42766022 91.72127991 -38.42988586 90.50588989 C-38.57479445 76.12876184 -41.11543412 63.81891526 -51.328125 53.20703125 C-60.19756379 45.14129565 -71.85997024 42.36002174 -83.66796875 42.73046875 C-95.31163127 43.79570852 -105.30081069 47.09883758 -113.5546875 55.63671875 C-119.79738025 63.29619284 -122.83624513 72.92021783 -122.90040588 82.70014954 C-122.9101947 83.8345195 -122.91998352 84.96888947 -122.93006897 86.13763428 C-122.93582443 87.37265686 -122.9415799 88.60767944 -122.94750977 89.88012695 C-122.95740936 91.18783554 -122.96730896 92.49554413 -122.97750854 93.84288025 C-123.00448649 97.42096307 -123.02553442 100.99905898 -123.04551053 104.57718682 C-123.06741407 108.31948229 -123.09478135 112.06173772 -123.12156677 115.80400085 C-123.17143468 122.88700587 -123.21639535 129.97003318 -123.25958914 137.05308169 C-123.31825599 146.62688509 -123.38451109 156.20063579 -123.45033932 165.77439213 C-123.55382167 180.85346547 -123.64717217 195.93258418 -123.7421875 211.01171875 C-147.1721875 211.01171875 -170.6021875 211.01171875 -194.7421875 211.01171875 C-194.7421875 136.10171875 -194.7421875 61.19171875 -194.7421875 -15.98828125 C-171.3121875 -15.98828125 -147.8821875 -15.98828125 -123.7421875 -15.98828125 C-123.2471875 -3.61328125 -123.2471875 -3.61328125 -122.7421875 9.01171875 C-120.421875 6.53671875 -120.421875 6.53671875 -118.0546875 4.01171875 C-88.06069389 -26.62720931 -32.53740197 -26.71428759 0 0 Z " fill="#1C072E" transform="translate(2038.7421875,257.98828125)"/>
<path d="M0 0 C23.1 0 46.2 0 70 0 C78.9871612 12.35734665 78.9871612 12.35734665 81.71875 16.69921875 C82.33161865 17.66690186 82.9444873 18.63458496 83.57592773 19.6315918 C84.21087158 20.6400415 84.84581543 21.64849121 85.5 22.6875 C86.91618547 24.91783142 88.33352774 27.14734462 89.75390625 29.375 C90.11114273 29.93535446 90.46837921 30.49570892 90.83644104 31.07304382 C94.29965712 36.49211929 97.8564051 41.84587462 101.4375 47.1875 C108.36605387 57.5276637 115.2255325 67.91161863 122.0625 78.3125 C122.5958194 79.12372314 123.12913879 79.93494629 123.67861938 80.77075195 C126.92797056 85.71365067 130.17619134 90.65729131 133.42401123 95.60119629 C135.91883795 99.39855812 138.41451103 103.19536356 140.91015625 106.9921875 C143.75086801 111.31406894 146.59137607 115.63608365 149.4309082 119.95874023 C153.89012345 126.7469631 158.35074427 133.53424822 162.81637573 140.31825256 C164.94796969 143.55661649 167.0788364 146.79545864 169.20965576 150.03433228 C170.22658695 151.57963492 171.24387314 153.12470401 172.26153564 154.66952515 C173.67005733 156.80773289 175.07734347 158.94674899 176.484375 161.0859375 C177.10616135 162.02876839 177.10616135 162.02876839 177.74050903 162.99064636 C179.90793765 166.28872213 181.96780288 169.6130048 184 173 C184.495 87.365 184.495 87.365 185 0 C208.43 0 231.86 0 256 0 C256.02202595 36.29029441 256.04049759 72.58058253 256.05106533 108.8708817 C256.05231611 113.15065617 256.05361042 117.43043063 256.05493164 121.71020508 C256.05532511 122.98829943 256.05532511 122.98829943 256.05572652 124.29221386 C256.06008347 138.10727427 256.06797116 151.92233054 256.0771528 165.73738848 C256.08648863 179.90209849 256.09205546 194.06680632 256.09408849 208.23151928 C256.09546387 216.97911268 256.09981523 225.72669438 256.10791647 234.47428418 C256.11318306 240.46448714 256.11480449 246.45468401 256.11350138 252.44488912 C256.11285786 255.90620149 256.11387703 259.36749334 256.11920547 262.82880211 C256.12413504 266.57256593 256.12300102 270.31627848 256.12025452 274.06004333 C256.12462378 275.71905447 256.12462378 275.71905447 256.12908131 277.41158098 C256.12709026 278.40633977 256.12509921 279.40109856 256.12304783 280.42600155 C256.12342755 281.29138418 256.12380727 282.15676681 256.1241985 283.04837316 C256 285 256 285 255 286 C200.35396365 294.80945042 200.35396365 294.80945042 181.78759766 284.15686035 C170.23830785 274.87194849 164.04813609 260.61596966 158.36230469 247.28125 C155.47637247 240.59969276 151.59604541 234.89432825 147.39245605 228.98965454 C144.6548034 225.07787361 142.06795778 221.06472644 139.453125 217.0703125 C138.27826155 215.28430397 137.10296044 213.49858327 135.92724609 211.71313477 C135.32740906 210.80153595 134.72757202 209.88993713 134.10955811 208.95071411 C124.57330968 194.45979196 115.01408563 179.98524116 105.375 165.5625 C98.35058384 155.05026441 91.36687765 144.51266018 84.4375 133.9375 C84.04077087 133.33253693 83.64404175 132.72757385 83.23529053 132.10427856 C82.11278515 130.39185477 80.99164041 128.67854975 79.87109375 126.96484375 C78.92641235 125.52032837 78.92641235 125.52032837 77.96264648 124.04663086 C75.60546095 120.38755407 73.30687581 116.6910013 71 113 C70.67 170.09 70.34 227.18 70 286 C46.9 286 23.8 286 0 286 C0 191.62 0 97.24 0 0 Z " fill="#1C072E" transform="translate(1211,532)"/>
<path d="M0 0 C23.1 0 46.2 0 70 0 C71.42476124 4.27428373 72.51429744 8.08481313 73.37942505 12.45407104 C73.634599 13.73285629 73.88977295 15.01164154 74.15267944 16.32917786 C74.42884442 17.73359782 74.70493446 19.13803251 74.98095703 20.54248047 C75.27648072 22.03109765 75.57234738 23.51964677 75.86853027 25.00813293 C76.66938889 29.03795677 77.46545817 33.06871336 78.26066065 37.09965658 C79.0933401 41.31626816 79.93043532 45.53200289 80.76705933 49.74783325 C82.34966332 57.72623545 83.92830366 65.70541649 85.50551593 73.6848861 C87.30172921 82.77131429 89.10236786 91.85686368 90.90337586 100.94234252 C94.60717004 119.62725586 98.30541483 138.3132637 102 157 C104.15479756 148.99979643 106.30603774 141.00541027 108.19140625 132.93652344 C108.37775509 132.14727698 108.56410393 131.35803053 108.7560997 130.54486752 C109.3603172 127.98352246 109.96144499 125.42146384 110.5625 122.859375 C110.99519233 121.02223831 111.42807876 119.18514733 111.86114502 117.34809875 C112.77333974 113.47676204 113.68416998 109.605108 114.59387207 105.73318481 C116.0077778 99.71535726 117.42508525 93.69833389 118.84277344 87.68139648 C122.60569894 71.70707517 126.36264699 55.73135425 130.1048584 39.75216675 C130.97300567 36.04526166 131.84189929 32.33853224 132.7109375 28.63183594 C133.71402554 24.35325323 134.71361921 20.07387621 135.7109375 15.79394531 C136.14572783 13.93682425 136.58061611 12.07972612 137.015625 10.22265625 C137.20626526 9.40001785 137.39690552 8.57737946 137.59332275 7.72981262 C138.8863519 2.22729621 138.8863519 2.22729621 140 0 C164.42 0 188.84 0 214 0 C215.68714999 4.21787497 216.88608401 8.2527824 217.91674805 12.64599609 C218.18870263 13.78453537 218.18870263 13.78453537 218.46615124 14.94607544 C219.06830243 17.47101438 219.66500358 19.99720883 220.26171875 22.5234375 C220.68888393 24.31938519 221.1163918 26.11525139 221.54421997 27.91104126 C222.69212055 32.73339413 223.83538 37.55683637 224.97778702 42.38049316 C226.15975613 47.36760019 227.34603843 52.35368076 228.53198242 57.33984375 C230.44367218 65.3793845 232.35306683 73.41946673 234.26074219 81.45996094 C236.74386069 91.92513746 239.23345432 102.38876175 241.7265625 112.8515625 C241.90526949 113.60158916 242.08397648 114.35161583 242.26809883 115.12437057 C242.95897576 118.02394514 243.64986765 120.92351614 244.34082127 123.82307243 C246.04762492 130.98588179 247.75250178 138.14914914 249.45703125 145.3125 C249.84920334 146.96060165 249.84920334 146.96060165 250.2492981 148.64199829 C250.83289532 151.09465841 251.41645761 153.54732683 252 156 C254.29736443 147.23199404 256.17752176 138.42475573 257.89501953 129.52661133 C258.16941383 128.11755936 258.44410102 126.70856441 258.71905518 125.29962158 C259.3052046 122.29302322 259.88942471 119.28605908 260.47211075 116.27878761 C261.39313792 111.52594508 262.31922261 106.77409642 263.24606323 102.02238464 C265.54435702 90.23538462 267.83589195 78.44707188 270.12646484 66.65856934 C271.91303719 57.4643907 273.70137593 48.27056302 275.49499977 39.07775706 C276.41717085 34.35029802 277.33566806 29.62214438 278.25141549 24.89343703 C278.81936492 21.96481483 279.39049653 19.03682007 279.96253204 16.10899353 C280.22793967 14.74705791 280.49200346 13.38485966 280.75465775 12.02239037 C281.11187758 10.1703528 281.47425773 8.31931273 281.83694458 6.46833801 C282.03860796 5.43031446 282.24027134 4.3922909 282.44804573 3.32281208 C283 1 283 1 284 0 C286.05556661 -0.09413687 288.11440181 -0.11742998 290.17211914 -0.11352539 C291.13794167 -0.11374443 291.13794167 -0.11374443 292.12327576 -0.1139679 C294.26060303 -0.11326885 296.39784413 -0.10547691 298.53515625 -0.09765625 C300.01346285 -0.09579204 301.49177007 -0.09436815 302.97007751 -0.09336853 C306.86798802 -0.08954359 310.76586149 -0.07971352 314.66375732 -0.06866455 C318.63846333 -0.05844992 322.61317529 -0.0538708 326.58789062 -0.04882812 C334.391944 -0.03809122 342.19596682 -0.02101509 350 0 C347.30275671 11.78543153 344.33491087 23.47334059 341.16796875 35.140625 C340.69824485 36.87929 340.22876462 38.61802083 339.75950623 40.35681152 C338.50043006 45.01948529 337.2379787 49.68123889 335.97486115 54.34281921 C334.64253359 59.26218447 333.31339923 64.18241242 331.98388672 69.10253906 C329.49043247 78.3281309 326.99415953 87.55295738 324.49665833 96.77745438 C321.80567382 106.71684464 319.11721734 116.65691794 316.4289875 126.59705353 C313.23409069 138.41041565 310.03859826 150.22361632 306.84057617 162.03613281 C306.49977414 163.29496277 306.49977414 163.29496277 306.15208721 164.57922363 C305.11043891 168.42667405 304.06868479 172.27409575 303.02671814 176.12145996 C298.34476152 193.41258472 293.67387026 210.70668002 289 228 C263.26 228 237.52 228 211 228 C206.40419653 210.765737 206.40419653 210.765737 204.34619141 202.33056641 C203.99401299 200.89522049 203.99401299 200.89522049 203.63471985 199.43087769 C202.8721908 196.32146564 202.11183073 193.21152803 201.3515625 190.1015625 C200.81126392 187.89599798 200.27084606 185.69046268 199.73031616 183.48495483 C198.60150041 178.87773125 197.47368514 174.2702644 196.34667969 169.66259766 C194.92067174 163.83256018 193.49284266 158.0029708 192.06432533 152.17354774 C190.9483926 147.61929617 189.83311835 143.06488355 188.71805954 138.51041794 C188.19283109 136.36516837 187.66748868 134.21994671 187.14201736 132.07475662 C183.38346224 116.72710906 179.67553248 101.36774031 176 86 C174.12923928 91.43997407 172.43790579 96.86653116 171.02978516 102.44848633 C170.7674825 103.48240525 170.7674825 103.48240525 170.49988079 104.53721142 C169.92635479 106.80134311 169.35766641 109.06665891 168.7890625 111.33203125 C168.38026029 112.95034766 167.97117051 114.56859145 167.56181335 116.18676758 C166.47066946 120.50367759 165.38377421 124.82164682 164.29770279 129.13983536 C163.39948641 132.70847102 162.49850989 136.27640715 161.5974474 139.84432507 C157.31628483 156.79660806 153.05426041 173.75363708 148.82421875 190.71875 C148.51705933 191.95018234 148.2098999 193.18161469 147.89343262 194.45036316 C146.48999669 200.07955847 145.08992083 205.70955462 143.69580078 211.34106445 C143.20997684 213.29639067 142.72413804 215.25171319 142.23828125 217.20703125 C142.0225798 218.08335205 141.80687836 218.95967285 141.5846405 219.86254883 C140.11300675 225.7739865 140.11300675 225.7739865 139 228 C113.59 228 88.18 228 62 228 C56.25688616 209.62203572 56.25688616 209.62203572 53.89160156 200.81152344 C53.61843864 199.80428852 53.34527573 198.7970536 53.06383514 197.75929642 C52.16985192 194.46010319 51.28023272 191.15975047 50.390625 187.859375 C49.74818863 185.48535602 49.1054606 183.11141596 48.46246338 180.73754883 C47.09663747 175.6928252 45.73261241 170.64761869 44.37036133 165.60192871 C42.23599946 157.69643599 40.09787899 149.79196271 37.95898438 141.88769531 C37.41679662 139.88397084 36.87461382 137.88024503 36.3324337 135.87651849 C35.96990211 134.53671942 35.60736472 133.19692193 35.24482155 131.857126 C34.15189599 127.81803012 33.05935162 123.77883135 31.96709633 119.73955417 C27.1049453 101.75908953 22.22507602 83.78352369 17.328125 65.8125 C16.73485786 63.63446747 16.14161611 61.45642802 15.54840088 59.27838135 C12.20597694 47.00709591 12.20597694 47.00709591 8.85852051 34.73718262 C7.58483252 30.07239012 6.31338581 25.40699268 5.04366302 20.74111938 C4.58198503 19.0463894 4.1194041 17.35190509 3.6558609 15.65768433 C3.03065337 13.37234105 2.40849269 11.08619019 1.78710938 8.79980469 C1.60354008 8.13183743 1.41997078 7.46387016 1.23083878 6.77566147 C0 2.22814646 0 2.22814646 0 0 Z " fill="#1C072E" transform="translate(1859,590)"/>
<path d="M0 0 C26.73 0 53.46 0 81 0 C85.49956625 10.12402406 85.49956625 10.12402406 87.15625 14.74853516 C87.72082916 16.31637001 87.72082916 16.31637001 88.29681396 17.9158783 C88.69386536 19.02902908 89.09091675 20.14217987 89.5 21.2890625 C90.15689645 23.11689687 90.81379462 24.94473062 91.47076035 26.77254009 C92.16831786 28.71521506 92.86424462 30.65846704 93.55969238 32.60189819 C95.77456516 38.79088051 97.99987734 44.9761133 100.22388458 51.16181755 C100.98773683 53.28669567 101.75118475 55.41171874 102.5145874 57.53675842 C107.38871307 71.10074742 112.31532524 84.6454257 117.25 98.1875 C124.35243055 117.68815396 131.40730358 137.20540971 138.42944336 156.73510742 C139.16909291 158.7921604 139.90875754 160.84920796 140.6484375 162.90625 C141.01177689 163.91669876 141.37511627 164.92714752 141.74946594 165.96821594 C145.24835356 175.69576908 148.76069655 185.41843333 152.27774048 195.13943481 C153.30575234 197.98134628 154.33298539 200.82353831 155.36010742 203.66577148 C158.96803753 213.64547344 162.58851648 223.62049616 166.22587585 233.58950806 C167.93425494 238.2721204 169.63911649 242.95601139 171.34323215 247.64017677 C172.76536584 251.54826775 174.19207246 255.45464923 175.62216663 259.35983372 C176.72101523 262.36467947 177.81307033 265.37199439 178.90625 268.37890625 C179.30643845 269.46732315 179.70662689 270.55574005 180.11894226 271.67713928 C180.66818108 273.1934922 180.66818108 273.1934922 181.22851562 274.74047852 C181.54808228 275.61575699 181.86764893 276.49103546 182.19689941 277.39283752 C183 280 183 280 184 286 C159.58 286 135.16 286 110 286 C107.751875 279.585625 105.50375 273.17125 103.1875 266.5625 C102.48391357 264.55615479 101.78032715 262.54980957 101.05541992 260.48266602 C100.48871581 258.86476491 99.92206216 257.24684613 99.35546875 255.62890625 C99.06853149 254.81127808 98.78159424 253.9936499 98.48596191 253.15124512 C98.20208618 252.34022339 97.91821045 251.52920166 97.62573242 250.69360352 C97.26266243 249.65768822 97.26266243 249.65768822 96.89225769 248.60084534 C95.56868872 244.74276912 94.28982894 240.86948682 93 237 C40.53 236.505 40.53 236.505 -13 236 C-13.495 238.97 -13.495 238.97 -14 242 C-14.42206085 243.47740267 -14.88187506 244.94466192 -15.3828125 246.3972168 C-15.6597998 247.20793137 -15.93678711 248.01864594 -16.22216797 248.85392761 C-16.52010254 249.71037369 -16.81803711 250.56681976 -17.125 251.44921875 C-17.43195801 252.34365189 -17.73891602 253.23808502 -18.05517578 254.15962219 C-19.03236207 257.00379256 -20.01605525 259.84566154 -21 262.6875 C-21.66189445 264.60987594 -22.32335742 266.5324005 -22.984375 268.45507812 C-24.43722905 272.67914326 -25.89424188 276.90174784 -27.35498047 281.12309265 C-27.91256597 282.74558046 -28.45747182 284.37241545 -29 286 C-53.42 286 -77.84 286 -103 286 C-101.08872092 279.62906973 -99.14460151 273.36393079 -96.91015625 267.11328125 C-96.46598106 265.86218567 -96.46598106 265.86218567 -96.01283264 264.58581543 C-95.03218518 261.82703899 -94.04754441 259.06970928 -93.0625 256.3125 C-92.54487091 254.85981216 -92.54487091 254.85981216 -92.01678467 253.3777771 C-85.28388581 234.48299372 -78.43229978 215.63170841 -71.56445312 196.78564453 C-66.03047522 181.59813849 -60.52972276 166.39916011 -55.0625 151.1875 C-47.66292128 130.60251817 -40.22773 110.03060565 -32.77490234 89.46484375 C-31.89679698 87.04167135 -31.01870446 84.61849429 -30.140625 82.1953125 C-29.70976593 81.00633362 -29.27890686 79.81735474 -28.83499146 78.59234619 C-25.94067874 70.60300282 -23.05415729 62.61087801 -20.171875 54.6171875 C-19.03540392 51.46737008 -17.89882637 48.3175911 -16.76223755 45.16781616 C-16.06305959 43.22895084 -15.36451874 41.28985562 -14.66671753 39.35049438 C-14.17801682 37.99231094 -14.17801682 37.99231094 -13.67944336 36.60668945 C-13.39918808 35.8271138 -13.1189328 35.04753815 -12.83018494 34.24433899 C-8.67715894 22.7726448 -4.34592282 11.40804739 0 0 Z M40 80 C37.37576257 86.395849 34.96419104 92.81864147 32.79199219 99.38110352 C32.49880096 100.25877884 32.20560974 101.13645416 31.90353394 102.04072571 C30.94839177 104.90248786 29.9975344 107.76565215 29.046875 110.62890625 C28.38020376 112.63011353 27.71330974 114.63124661 27.04620361 116.63230896 C25.65589456 120.80479304 24.26759139 124.97793708 22.88085938 129.15161133 C21.09945889 134.51290424 19.31404966 139.87285148 17.52729416 145.23236179 C16.1535457 149.3538782 14.78135725 153.47591254 13.40970612 157.59812737 C12.75137708 159.57630374 12.09268082 161.55435794 11.43361664 163.53228951 C10.51770656 166.28217476 9.60376995 169.03270759 8.69042969 171.78344727 C8.41619171 172.60570801 8.14195374 173.42796875 7.85940552 174.27514648 C6.56816354 177.57135145 6.56816354 177.57135145 6 181 C28.77 181 51.54 181 75 181 C71.78728653 171.36155387 71.78728653 171.36155387 68.57373047 161.72338867 C65.6597742 152.98511904 62.74854892 144.24594761 59.84204102 135.50519753 C58.03498814 130.07087899 56.22693176 124.63689494 54.41830444 119.2031002 C53.28331236 115.79293483 52.14889853 112.38257923 51.01574707 108.97180176 C49.72826998 105.09654431 48.43842479 101.22207883 47.1484375 97.34765625 C46.75931183 96.17511795 46.37018616 95.00257965 45.9692688 93.79450989 C45.42639725 92.16578194 45.42639725 92.16578194 44.87255859 90.50415039 C44.55789642 89.55794327 44.24323425 88.61173615 43.91903687 87.63685608 C43.01985206 85.05695856 42.03531029 82.52798132 41 80 C40.67 80 40.34 80 40 80 Z " fill="#1C072E" transform="translate(1295,183)"/>
<path d="M0 0 C4.92870508 4.3062089 8.88010474 8.70452324 13.19140625 13.734375 C13.52140625 4.494375 13.85140625 -4.745625 14.19140625 -14.265625 C37.29140625 -14.265625 60.39140625 -14.265625 84.19140625 -14.265625 C84.19140625 60.644375 84.19140625 135.554375 84.19140625 212.734375 C61.09140625 212.734375 37.99140625 212.734375 14.19140625 212.734375 C13.86140625 203.494375 13.53140625 194.254375 13.19140625 184.734375 C11.83015625 186.343125 10.46890625 187.951875 9.06640625 189.609375 C-4.65117006 204.98871139 -23.84639151 214.30828754 -44.37744141 216.03442383 C-47.96465058 216.16958042 -51.53153723 216.2025055 -55.12109375 216.171875 C-56.38783936 216.16357666 -57.65458496 216.15527832 -58.9597168 216.14672852 C-84.99066083 215.67894727 -106.9724719 205.32522012 -125.18066406 186.90600586 C-149.28744386 161.36217681 -156.74970179 126.23021977 -155.89746094 92.11962891 C-154.6795902 59.43117526 -143.75805218 28.62820992 -119.80859375 5.734375 C-87.01570888 -22.72226063 -34.80555705 -28.07680541 0 0 Z M-73.02734375 61.2265625 C-83.58016746 76.08382746 -85.85088309 93.30589531 -83.49951172 111.06933594 C-81.02807575 125.2161763 -74.85042981 137.82906102 -63.04296875 146.28515625 C-51.10248754 154.02976906 -39.01633517 156.49622603 -24.8515625 154.26953125 C-11.46211858 151.03231233 -0.93140201 143.50236761 6.50390625 131.921875 C15.39982298 116.08220104 16.77492403 96.63849582 12.02319336 79.24609375 C7.86371408 65.47774607 -0.64341302 54.84294733 -13.3359375 47.91796875 C-33.68324269 38.17826342 -58.64819297 43.84193348 -73.02734375 61.2265625 Z " fill="#1C072E" transform="translate(2391.80859375,256.265625)"/>
<path d="M0 0 C23.1 0 46.2 0 70 0 C70.33 54.12 70.66 108.24 71 164 C74.3 159.38 77.6 154.76 81 150 C83.58843872 146.56887228 86.18611866 143.15137911 88.8125 139.75 C93.81063326 133.2364252 98.72605303 126.67963964 103.5 120 C108.83304536 112.5433966 114.33709817 105.22978681 119.91796875 97.95703125 C120.53414062 97.15394531 121.1503125 96.35085938 121.78515625 95.5234375 C122.41569412 94.73198334 123.04623199 93.94052917 123.69587708 93.12509155 C125.43317276 90.76879015 126.88081887 88.53415423 128.33403015 86.01553345 C134.82415376 75.33697162 134.82415376 75.33697162 140.12825203 73.10404587 C146.02449484 71.77028996 151.98927529 72.15979555 157.984375 72.4375 C159.89526833 72.46739867 161.80628559 72.49014737 163.71734619 72.50610352 C168.71186946 72.56677228 173.69876806 72.72349138 178.69030762 72.90136719 C183.79769722 73.06600995 188.90633828 73.13831824 194.015625 73.21875 C204.01374041 73.38958449 214.00623284 73.66207891 224 74 C219.98894727 82.29876719 213.08760002 89.11527243 207.14331055 96.10668945 C202.69100578 101.34682212 198.33721413 106.66429053 194 112 C188.76210656 118.44373941 183.4661975 124.83016662 178.09082031 131.15917969 C173.6594004 136.38447188 169.32155158 141.68355885 165 147 C159.76572263 153.43929086 154.47394877 159.82174566 149.10180664 166.14599609 C143.28564314 173.00335626 137.60941481 179.9725452 132 187 C133.52450354 191.99961409 136.51578759 195.19656694 139.9375 199 C141.1191408 200.33796682 142.30011927 201.67651884 143.48046875 203.015625 C144.07263184 203.68400391 144.66479492 204.35238281 145.27490234 205.04101562 C147.80381242 207.91279237 150.28220517 210.8256808 152.75 213.75 C153.20117188 214.28375244 153.65234375 214.81750488 154.1171875 215.36743164 C156.92401356 218.6974689 159.68991716 222.05851572 162.4375 225.4375 C166.84913055 230.85570579 171.39323642 236.1527085 175.94921875 241.44921875 C182.19427321 248.71031003 188.3963115 256.00553429 194.4375 263.4375 C198.39017006 268.29525372 202.45548069 273.04682767 206.54296875 277.79077148 C210.46560132 282.35271772 214.29878579 286.97693282 218.0859375 291.65234375 C219.71531298 293.65082266 221.37845293 295.61032253 223.0625 297.5625 C225 300 225 300 225 302 C213.88259684 302.41879598 202.76709442 302.73771889 191.64338398 302.93261909 C186.47644583 303.02621765 181.31493562 303.15288457 176.15112305 303.35791016 C139.92733383 304.75903377 139.92733383 304.75903377 132.55810547 298.22949219 C129.55136606 294.59808512 127.67418054 290.78883176 126.02839661 286.39445496 C124.20346445 282.14539595 121.30887888 278.64205784 118.5 275 C115.25886276 270.51376802 112.0185807 266.02695203 108.78515625 261.53515625 C102.66135114 253.0331744 96.48782399 244.57083624 90.25927734 236.14526367 C85.45574382 229.63966417 80.71385789 223.09090896 75.99804688 216.52148438 C75.48693359 215.81056641 74.97582031 215.09964844 74.44921875 214.3671875 C73.77379028 213.42528564 73.77379028 213.42528564 73.0847168 212.46435547 C72.07446838 211.02536593 72.07446838 211.02536593 71 210 C70.67 240.36 70.34 270.72 70 302 C46.9 302 23.8 302 0 302 C0 202.34 0 102.68 0 0 Z " fill="#1C072E" transform="translate(2590,516)"/>
<path d="M0 0 C0.79148437 0.73347656 1.58296875 1.46695313 2.3984375 2.22265625 C2.88151367 2.67012207 3.36458984 3.11758789 3.86230469 3.57861328 C10.58852761 9.87733988 16.63721821 16.2764204 21.3984375 24.22265625 C21.7500293 24.8057959 22.10162109 25.38893555 22.46386719 25.98974609 C33.87530069 45.23741975 38.81062399 65.85793551 38.60424805 88.17333984 C38.58570663 90.24849478 38.5837412 92.32320734 38.58398438 94.3984375 C38.56404362 99.83207118 38.47037514 104.86296804 37.3984375 110.22265625 C-14.4115625 110.22265625 -66.2215625 110.22265625 -119.6015625 110.22265625 C-114.59023295 132.27272515 -114.59023295 132.27272515 -99.25390625 146.6875 C-88.27827781 152.6884379 -75.76100625 153.82379034 -63.69921875 150.3984375 C-55.6760709 147.34602185 -49.71627172 143.11390312 -44.6015625 136.22265625 C-44.22682297 135.37061111 -43.85208344 134.51856598 -43.46598816 133.64070129 C-41.6015625 131.22265625 -41.6015625 131.22265625 -38.39350891 130.62138367 C-37.05444427 130.60689369 -35.71491018 130.62017903 -34.3762207 130.6550293 C-33.64426483 130.65429916 -32.91230896 130.65356903 -32.15817261 130.65281677 C-29.73880898 130.65630031 -27.32137092 130.69519334 -24.90234375 130.734375 C-23.22512362 130.74370051 -21.54788986 130.75081786 -19.87065125 130.7558136 C-15.45619094 130.77490434 -11.04255325 130.82402226 -6.62841797 130.8793335 C-2.12413665 130.93048168 2.38027761 130.95331812 6.88476562 130.97851562 C15.72301768 131.0321396 24.56065919 131.11747697 33.3984375 131.22265625 C32.93758302 132.96576778 32.47277952 134.7078355 32.00634766 136.44946289 C31.74794098 137.41968887 31.4895343 138.38991486 31.22329712 139.38954163 C30.07772528 143.32419459 28.54085024 146.96996842 26.7734375 150.66015625 C26.42788818 151.38533447 26.08233887 152.1105127 25.72631836 152.85766602 C13.71078222 177.2145012 -8.36900098 195.05618815 -33.6015625 204.22265625 C-65.95171892 215.1754715 -101.90761795 212.00851598 -132.51245117 197.44433594 C-139.18028194 194.11235057 -144.88737385 190.02588729 -150.6015625 185.22265625 C-151.44976563 184.536875 -152.29796875 183.85109375 -153.171875 183.14453125 C-174.62280002 164.9885759 -186.15529109 138.21154599 -189.40527344 110.66235352 C-192.21534647 75.73566219 -186.8390052 40.67869671 -163.6015625 13.22265625 C-156.70444355 5.57628675 -149.48496667 -1.47305024 -140.6015625 -6.77734375 C-139.50585938 -7.4321875 -138.41015625 -8.08703125 -137.28125 -8.76171875 C-96.96738509 -31.93537208 -36.31328269 -31.16993378 0 0 Z M-107.34375 44.8125 C-113.90273737 51.8140488 -119.6015625 61.28788159 -119.6015625 71.22265625 C-91.2215625 71.22265625 -62.8415625 71.22265625 -33.6015625 71.22265625 C-33.6015625 60.5209962 -36.12817945 52.07574929 -43.6015625 44.22265625 C-61.39210298 28.01182549 -90.04460501 28.1369919 -107.34375 44.8125 Z " fill="#1C072E" transform="translate(1667.6015625,610.77734375)"/>
<path d="M0 0 C4.29642844 3.95763297 7.87883222 8.1765354 11.1875 12.9921875 C11.58420898 13.56952637 11.98091797 14.14686523 12.38964844 14.74169922 C31.73188574 43.27186529 37.16910253 77.57864578 31.15625 111.27734375 C28.5551441 124.50052777 23.69924382 136.22966316 17.1875 147.9921875 C16.64351562 148.97960937 16.09953125 149.96703125 15.5390625 150.984375 C0.0024511 177.13135515 -26.61670252 191.92681989 -55.20410156 199.43261719 C-76.28912079 204.75095679 -101.9274422 203.99912793 -122.8125 197.9921875 C-123.47121094 197.81558594 -124.12992188 197.63898438 -124.80859375 197.45703125 C-139.57570499 193.44584409 -153.40760163 186.19553353 -164.8125 175.9921875 C-165.65167969 175.28320312 -166.49085937 174.57421875 -167.35546875 173.84375 C-190.16142 154.17749855 -201.18716545 125.80675434 -203.53515625 96.34375 C-205.67366526 64.7102142 -198.22601637 32.10369117 -177.21484375 7.64453125 C-155.35799696 -16.48684918 -127.24664168 -29.78936237 -94.7109375 -31.8828125 C-58.98381822 -33.42360471 -26.92288327 -24.03828864 0 0 Z M-117.25 41.8046875 C-130.77505683 56.32518851 -132.48905121 74.43577228 -131.93994141 93.44238281 C-131.26016496 107.04312073 -125.97556487 119.90722891 -116.8125 129.9921875 C-105.39706609 139.8492004 -93.70243664 142.17328671 -79.03320312 141.21972656 C-70.16337539 140.31090077 -63.47431474 136.68444235 -56.8125 130.9921875 C-55.966875 130.4146875 -55.12125 129.8371875 -54.25 129.2421875 C-44.37557829 120.12733669 -39.6330499 107.35106824 -38.58959961 94.17822266 C-37.89014227 76.32468737 -38.87455537 58.79234439 -50.91796875 44.4921875 C-60.85846568 34.08973977 -70.99431648 29.70746265 -85.328125 29 C-97.71729546 28.97222159 -108.25664421 33.22497271 -117.25 41.8046875 Z " fill="#1C072E" transform="translate(1803.8125,270.0078125)"/>
<path d="M0 0 C23.83315706 20.35719153 36.56224431 48.65731926 39.1484375 79.7109375 C40.82661985 110.95244848 34.39372154 143.42568953 13.15625 167.484375 C12.49367188 168.21914063 11.83109375 168.95390625 11.1484375 169.7109375 C10.47425781 170.56429687 9.80007812 171.41765625 9.10546875 172.296875 C-7.55397747 192.84685058 -37.69395922 204.11735186 -63.05859375 207.2734375 C-95.74067399 210.67094332 -129.95206837 204.38963786 -156.14379883 183.69287109 C-180.30793113 163.87105163 -193.3555915 137.37323231 -197.25390625 106.52734375 C-199.67501422 81.55344916 -196.54818841 56.10937319 -184.8515625 33.7109375 C-184.41328125 32.80472656 -183.975 31.89851562 -183.5234375 30.96484375 C-170.65007864 5.4770729 -147.11995727 -11.67370901 -120.5546875 -20.81640625 C-114.0882407 -22.91945549 -107.57478664 -24.28328674 -100.8515625 -25.2890625 C-99.0571875 -25.56363281 -99.0571875 -25.56363281 -97.2265625 -25.84375 C-62.71456808 -29.98667781 -26.98281907 -22.45801381 0 0 Z M-114.1640625 49.9609375 C-126.11574759 65.26323951 -127.41762792 84.28900148 -125.640625 102.92285156 C-123.89571191 116.76979445 -118.20347075 128.31381691 -107.8515625 137.7109375 C-97.71432195 145.46969928 -86.43873127 147.81885456 -73.8515625 146.7109375 C-61.53954482 144.70898341 -50.51305524 138.61305547 -42.8515625 128.7109375 C-32.24308945 111.43605046 -29.9491213 91.28649624 -33.9765625 71.4609375 C-37.97576295 57.4730364 -45.42738465 46.59246446 -58.01171875 39.15234375 C-77.31664889 29.35383038 -99.59930022 34.52832669 -114.1640625 49.9609375 Z " fill="#1C072E" transform="translate(2393.8515625,613.2890625)"/>
<path d="M0 0 C1.24132187 0.00222061 2.48264374 0.00444122 3.76158142 0.00672913 C4.44447739 0.0065831 5.12737335 0.00643707 5.83096313 0.00628662 C8.09815092 0.00698575 10.36525752 0.01477811 12.63243103 0.02259827 C14.20041865 0.02446245 15.76840685 0.02588635 17.33639526 0.02688599 C21.47103981 0.03071117 25.60564944 0.04054146 29.74028015 0.05158997 C34.69703195 0.0635987 39.65379539 0.06820632 44.61055756 0.07404327 C52.14782094 0.08375322 59.68500766 0.10290974 67.22227478 0.12025452 C67.22227478 18.60025452 67.22227478 37.08025452 67.22227478 56.12025452 C82.07227478 56.12025452 96.92227478 56.12025452 112.22227478 56.12025452 C112.22227478 75.26025452 112.22227478 94.40025452 112.22227478 114.12025452 C97.37227478 114.12025452 82.52227478 114.12025452 67.22227478 114.12025452 C67.31306723 131.18971754 67.31306723 131.18971754 67.43125916 148.25892639 C67.4855561 155.22236583 67.53666743 162.18572522 67.56871033 169.14930725 C67.59474977 174.76450322 67.63515726 180.37942997 67.68546104 185.99445915 C67.70212532 188.1349852 67.71364232 190.2755578 67.71988869 192.4161396 C67.72953433 195.41813904 67.75759997 198.41945041 67.78990173 201.42127991 C67.78846664 202.30313461 67.78703156 203.18498932 67.78555298 204.09356689 C67.86768553 209.5030347 68.60576666 213.34763785 71.22227478 218.12025452 C78.47260878 223.66888715 87.42862042 222.75655359 96.15977478 222.80775452 C98.44973113 222.83682036 100.73948842 222.87127054 103.02929688 222.9102478 C104.44704104 222.93273481 105.86490961 222.94855453 107.2828064 222.95709229 C112.1126347 223.01061444 112.1126347 223.01061444 113.22227478 224.12025452 C113.3160878 225.96143481 113.33971432 227.80623093 113.33580017 229.64979553 C113.33572464 230.83094437 113.33564911 232.0120932 113.33557129 233.22903442 C113.33041 234.51442612 113.32524872 235.79981781 113.31993103 237.12416077 C113.31780861 239.08638832 113.31780861 239.08638832 113.31564331 241.08825684 C113.31181888 244.57188311 113.30198925 248.05546791 113.29093933 251.53907776 C113.2807236 255.0915216 113.27614534 258.64397211 113.27110291 262.19642639 C113.2603669 269.17105284 113.24329138 276.14565169 113.22227478 283.12025452 C106.41286098 283.19731716 99.60356254 283.24927139 92.79380798 283.28504944 C90.48484597 283.2999895 88.17591159 283.32034893 85.86705017 283.34657288 C59.9923854 283.6327598 34.28487459 281.33994103 14.50743103 262.59681702 C-4.5846154 241.90560773 -3.94429714 213.38231614 -3.87538147 187.06947327 C-3.87351281 184.95813023 -3.87209102 182.84678675 -3.87109375 180.73544312 C-3.86730385 175.22002432 -3.8575043 169.7046325 -3.84638977 164.18922424 C-3.83609921 158.54449325 -3.83157986 152.89975784 -3.82655334 147.25502014 C-3.81587834 136.2100846 -3.79831074 125.16517604 -3.77772522 114.12025452 C-12.68772522 114.12025452 -21.59772522 114.12025452 -30.77772522 114.12025452 C-30.77772522 94.98025452 -30.77772522 75.84025452 -30.77772522 56.12025452 C-21.86772522 56.12025452 -12.95772522 56.12025452 -3.77772522 56.12025452 C-3.78932678 52.16154358 -3.80092834 48.20283264 -3.81288147 44.12416077 C-3.82067055 40.30832499 -3.82674816 36.49249009 -3.83265686 32.676651 C-3.83769905 30.01583971 -3.84453258 27.3550312 -3.85316467 24.69422913 C-3.8652353 20.87919936 -3.87095451 17.06420608 -3.87538147 13.24916077 C-3.88054276 12.05126419 -3.88570404 10.85336761 -3.89102173 9.61917114 C-3.89113503 7.9675724 -3.89113503 7.9675724 -3.89125061 6.28260803 C-3.89347122 5.30775955 -3.89569183 4.33291107 -3.89797974 3.32852173 C-3.7172746 0.01018286 -3.36209719 0.14555341 0 0 Z " fill="#1C072E" transform="translate(1483.7777252197266,185.87974548339844)"/>
<path d="M0 0 C23.1 0 46.2 0 70 0 C70 18.15 70 36.3 70 55 C84.85 55 99.7 55 115 55 C115 74.47 115 93.94 115 114 C100.15 114 85.3 114 70 114 C70.09079488 130.89172996 70.09079488 130.89172996 70.20898438 147.78320312 C70.26327967 154.67421395 70.31439106 161.56514393 70.34643555 168.45629883 C70.3724765 174.01314159 70.41288503 179.56971238 70.46318626 185.12638664 C70.47984952 187.24458364 70.49136716 189.36282768 70.49761391 191.48108101 C70.50726066 194.45195031 70.53532757 197.42212465 70.56762695 200.39282227 C70.56619186 201.26532623 70.56475677 202.1378302 70.5632782 203.03677368 C70.64593142 208.42506673 71.4172576 212.23667892 74 217 C79.81182642 221.801074 84.9396452 222.10525727 92.26953125 222.31640625 C93.51581299 222.35451416 94.76209473 222.39262207 96.04614258 222.43188477 C97.61904053 222.47498779 99.19193848 222.51809082 100.8125 222.5625 C105.824375 222.706875 110.83625 222.85125 116 223 C116 242.8 116 262.6 116 283 C109.173125 283.061875 102.34625 283.12375 95.3125 283.1875 C93.20657471 283.21481201 91.10064941 283.24212402 88.9309082 283.27026367 C63.55375417 283.46031547 37.55355812 280.67476665 18.28515625 262.4140625 C4.46339736 247.81261465 -0.18649295 229.08043826 -0.11352539 209.47485352 C-0.11367142 208.43995285 -0.11381744 207.40505219 -0.1139679 206.33879089 C-0.11327407 202.93547431 -0.10550652 199.53221321 -0.09765625 196.12890625 C-0.09579019 193.76236501 -0.09436717 191.39582338 -0.09336853 189.02928162 C-0.08955818 182.81343512 -0.07974056 176.59761214 -0.06866455 170.3817749 C-0.05841855 164.03381671 -0.05386408 157.68585471 -0.04882812 151.33789062 C-0.03811695 138.89191511 -0.02053216 126.44596319 0 114 C-9.24 114 -18.48 114 -28 114 C-28 94.53 -28 75.06 -28 55 C-18.76 55 -9.52 55 0 55 C0 36.85 0 18.7 0 0 Z " fill="#1C072E" transform="translate(1733,535)"/>
<path d="M0 0 C0 24.42 0 48.84 0 74 C-14.355 74.495 -14.355 74.495 -29 75 C-40.79565478 76.63589373 -53.0679532 79.33281796 -61 89 C-61.680625 89.680625 -62.36125 90.36125 -63.0625 91.0625 C-69.48560992 100.80076343 -70.14521699 112.21560077 -70.20532227 123.51318359 C-70.21522186 124.66498108 -70.22512146 125.81677856 -70.23532104 127.003479 C-70.26685 130.80177776 -70.29165952 134.60008901 -70.31640625 138.3984375 C-70.3369832 141.03545452 -70.35797987 143.67246829 -70.37937927 146.30947876 C-70.4291959 152.53538134 -70.47417541 158.76130902 -70.51740164 164.98726046 C-70.57172484 172.77409269 -70.63253223 180.56087257 -70.69335938 188.34765625 C-70.80178749 202.23173054 -70.9004341 216.11585305 -71 230 C-94.43 230 -117.86 230 -142 230 C-142 154.76 -142 79.52 -142 2 C-118.57 2 -95.14 2 -71 2 C-70.67 13.22 -70.34 24.44 -70 36 C-68.288125 33.89625 -66.57625 31.7925 -64.8125 29.625 C-47.82410263 9.53486062 -26.15487034 0 0 0 Z " fill="#1C072E" transform="translate(2582,588)"/>
</svg>
