<?xml version="1.0" encoding="UTF-8" standalone="no"?>
<svg
   version="1.1"
   width="1000.6309"
   height="1000.6309"
   id="svg14"
   sodipodi:docname="icon.svg"
   inkscape:version="1.4 (1:1.4+202410161351+e7c3feb100)"
   xmlns:inkscape="http://www.inkscape.org/namespaces/inkscape"
   xmlns:sodipodi="http://sodipodi.sourceforge.net/DTD/sodipodi-0.dtd"
   xmlns="http://www.w3.org/2000/svg"
   xmlns:svg="http://www.w3.org/2000/svg">
  <defs
     id="defs14" />
  <sodipodi:namedview
     id="namedview14"
     pagecolor="#ffffff"
     bordercolor="#000000"
     borderopacity="0.25"
     inkscape:showpageshadow="2"
     inkscape:pageopacity="0.0"
     inkscape:pagecheckerboard="0"
     inkscape:deskcolor="#d1d1d1"
     inkscape:zoom="0.4561252"
     inkscape:cx="1272.6769"
     inkscape:cy="641.2713"
     inkscape:window-width="1920"
     inkscape:window-height="1128"
     inkscape:window-x="0"
     inkscape:window-y="0"
     inkscape:window-maximized="1"
     inkscape:current-layer="svg14" />
  <g
     id="g14"
     transform="translate(0.31543298,0.31543298)">
    <path
       d="m 0,0 c 10.20273,8.7773488 17.158446,19.875839 23.78125,31.480469 0.64437,1.127043 1.28874,2.254087 1.952637,3.415283 30.740773,54.14201 50.699284,113.821988 59.609863,175.397218 0.10105,0.68979 0.202101,1.37958 0.306213,2.09027 3.304953,22.81283 4.3217,45.42978 4.256287,68.47223 -0.0022,1.38474 -0.0044,2.76949 -0.0065,4.15423 -0.04254,19.94692 -0.390325,39.63802 -3.305969,59.40827 -0.09946,0.6911 -0.198918,1.3822 -0.301392,2.09424 C 72.951936,439.10862 36.700987,527.636 -37.40625,615.41797 c -0.601106,0.68594 -1.202212,1.37188 -1.821533,2.07861 -6.076232,6.85729 -12.465224,13.36169 -18.953613,19.82691 -1.791614,1.78623 -3.577785,3.57777 -5.363526,5.36987 -5.783505,5.78722 -11.590032,11.4607 -17.861328,16.72461 -1.056596,0.91206 -2.112611,1.82479 -3.167969,2.73828 -67.537381,57.57715 -151.259521,97.98168 -254.707031,115.01172 -0.68979,0.10105 -1.37958,0.2021 -2.09027,0.30621 -22.81284,3.30496 -45.42978,4.3217 -68.47223,4.25629 -1.38475,-0.002 -2.76949,-0.004 -4.15424,-0.007 -19.94691,-0.0425 -39.63801,-0.39033 -59.40826,-3.30597 -0.6911,-0.0995 -1.3822,-0.19892 -2.09424,-0.30139 -65.36228,-9.41679 -128.44968,-29.83173 -185.71826,-62.94861 -0.96019,-0.55422 -1.92038,-1.10843 -2.90967,-1.67944 -18.97895,-11.18563 -33.54426,-24.21561 -39.84424,-46.03199 -5.14515,-20.50251 -1.14362,-41.73621 9.23022,-59.83091 6.64735,-10.9828 15.32855,-19.61151 24.38111,-28.59316 1.51905,-1.5182 3.03743,-3.03706 4.55521,-4.55653 4.09601,-4.09687 8.20117,-8.18447 12.3081,-12.27038 4.30019,-4.28136 8.59181,-8.57129 12.88437,-12.8603 8.11815,-8.10885 16.24391,-16.21002 24.37247,-24.30842 9.25868,-9.22508 18.50878,-18.45874 27.75819,-27.6931 19.01609,-18.98479 38.04286,-37.95883 57.07674,-56.92577 4.07988,2.30141 7.95811,4.6223 11.77637,7.3479 40.3552,28.43727 93.83797,37.72162 142.05298,30.00952 53.58835,-9.38269 99.72854,-39.21897 131.17065,-83.35742 29.45682,-43.23867 40.95779,-96.70914 31.93359,-148.25 -5.86656,-30.86734 -18.29074,-59.46472 -36.93359,-84.75 3.91366,-4.67956 7.97717,-9.12578 12.29066,-13.43784 0.60441,-0.60808 1.20881,-1.21616 1.83153,-1.84266 2.00778,-2.01872 4.01906,-4.03392 6.0304,-6.04909 1.44793,-1.45421 2.89568,-2.90861 4.34326,-4.36318 4.73869,-4.75963 9.48262,-9.51401 14.22681,-14.26817 1.63854,-1.64259 3.27705,-3.28522 4.91552,-4.92787 7.69945,-7.71849 15.4013,-15.43457 23.1061,-23.147714 8.86991,-8.879682 17.73149,-17.767576 26.58606,-26.662559 6.86114,-6.89137 13.73,-13.77498 20.60462,-20.652904 4.09818,-4.100525 8.19305,-8.204239 12.27975,-12.316208 3.84815,-3.871555 7.70586,-7.733324 11.57084,-11.588076 1.40904,-1.408549 2.81472,-2.820465 4.21659,-4.236152 C -80.774889,-10.969776 -35.860924,-28.517065 0,0 Z"
       fill="#a63fef"
       transform="translate(910.40625,218.58203)"
       id="path1" />
    <path
       d="M 0,0 C 1.3847452,0.00222262 2.7694905,0.00439913 4.1542358,0.00653076 24.101148,0.04906769 43.792248,0.39685559 63.5625,3.3125 64.253599,3.4119592 64.944697,3.5114185 65.656738,3.6138916 131.01902,13.030676 194.10642,33.445622 251.375,66.5625 c 1.44029,0.831324 1.44029,0.831324 2.90967,1.679443 18.97895,11.185624 33.54426,24.215607 39.84424,46.031987 5.14515,20.50251 1.14362,41.73621 -9.23022,59.83091 -6.64735,10.98279 -15.32855,19.61151 -24.38111,28.59316 -1.51905,1.5182 -3.03743,3.03706 -4.55521,4.55653 -4.09601,4.09687 -8.20117,8.18446 -12.3081,12.27038 -4.30019,4.28136 -8.59181,8.57129 -12.88437,12.8603 -8.11815,8.10884 -16.24391,16.21002 -24.37247,24.30842 -9.25868,9.22508 -18.50878,18.45873 -27.75819,27.6931 -19.01609,18.98478 -38.04286,37.95883 -57.07674,56.92577 -4.07988,-2.30142 -7.95811,-4.6223 -11.77637,-7.3479 -40.355196,-28.43727 -93.837965,-37.72162 -142.052976,-30.00952 -53.588358,9.38269 -99.728544,39.21896 -131.170654,83.35742 -29.45682,43.23867 -40.95779,96.70914 -31.93359,148.25 5.86656,30.86734 18.29074,59.46472 36.93359,84.75 -3.91366,4.67956 -7.97717,9.12578 -12.29066,13.43784 -0.60441,0.60808 -1.20881,1.21616 -1.83153,1.84266 -2.00778,2.01872 -4.01906,4.03392 -6.0304,6.04909 -1.44793,1.45421 -2.89568,2.90861 -4.34326,4.36317 -4.73869,4.75964 -9.48262,9.51402 -14.22681,14.26818 -1.63854,1.64259 -3.27705,3.28522 -4.91552,4.92787 -7.69945,7.71849 -15.4013,15.43457 -23.1061,23.14771 -8.86991,8.87968 -17.73149,17.76758 -26.58606,26.66256 -6.86114,6.89137 -13.73,13.77498 -20.60462,20.65291 -4.09818,4.10052 -8.19305,8.20423 -12.27975,12.3162 -3.84815,3.87156 -7.70586,7.73333 -11.57084,11.58808 -1.40904,1.40855 -2.81472,2.82046 -4.21659,4.23615 -18.81883,18.99375 -38.55797,31.66678 -66.06036,31.88258 -19.24865,-0.1658 -34.99755,-5.97096 -49.09375,-19.17578 -7.28573,-7.78318 -12.7741,-17.05002 -18.03125,-26.26172 -0.96656,-1.69057 -0.96656,-1.69057 -1.95264,-3.41528 -30.74077,-54.14201 -50.69928,-113.82199 -59.60986,-175.39722 -0.10105,-0.68979 -0.2021,-1.37958 -0.30621,-2.09027 -3.30496,-22.81284 -4.3217,-45.42978 -4.25629,-68.47223 0.002,-1.38475 0.004,-2.76949 0.007,-4.15424 0.0425,-19.94691 0.39033,-39.63801 3.30597,-59.40826 0.14919,-1.03665 0.14919,-1.03665 0.30139,-2.09424 13.34042,-92.59641 49.59137,-181.12379 123.69861,-268.90576 0.90166,-1.02891 0.90166,-1.02891 1.82153,-2.07861 6.07624,-6.85729 12.46523,-13.36169 18.95362,-19.82691 1.79161,-1.78623 3.57778,-3.57777 5.36352,-5.36987 5.78351,-5.78722 11.59003,-11.4607 17.86133,-16.72461 1.0566,-0.91206 2.11261,-1.82479 3.16797,-2.73828 C -257.73215,61.997069 -174.01001,21.592535 -70.5625,4.5625 -69.872711,4.4614496 -69.182921,4.3603992 -68.472229,4.2562866 -45.659394,0.9513337 -23.042453,-0.06541253 0,0 Z"
       fill="#e193fe"
       transform="translate(499.4375,-0.3125)"
       id="path2" />
  </g>
</svg>
