<svg width="257" height="258" viewBox="0 0 257 258" fill="none" xmlns="http://www.w3.org/2000/svg">
<path d="M62.8099 124.46C97.162 124.46 125.01 96.6122 125.01 62.2601C125.01 27.908 97.162 0.0600586 62.8099 0.0600586C28.4578 0.0600586 0.609863 27.908 0.609863 62.2601C0.609863 96.6122 28.4578 124.46 62.8099 124.46Z" fill="black"/>
<path d="M194.34 124.46C228.692 124.46 256.54 96.6122 256.54 62.2601C256.54 27.908 228.692 0.0600586 194.34 0.0600586C159.988 0.0600586 132.14 27.908 132.14 62.2601C132.14 96.6122 159.988 124.46 194.34 124.46Z" fill="black"/>
<path d="M62.8099 257.94C97.162 257.94 125.01 230.092 125.01 195.74C125.01 161.388 97.162 133.54 62.8099 133.54C28.4578 133.54 0.609863 161.388 0.609863 195.74C0.609863 230.092 28.4578 257.94 62.8099 257.94Z" fill="black"/>
<path d="M194.34 257.94C228.692 257.94 256.54 230.092 256.54 195.74C256.54 161.388 228.692 133.54 194.34 133.54C159.988 133.54 132.14 161.388 132.14 195.74C132.14 230.092 159.988 257.94 194.34 257.94Z" fill="black"/>
</svg>
