<?xml version="1.0" encoding="UTF-8"?>
<svg id="_Шар_1" data-name="Шар 1" xmlns="http://www.w3.org/2000/svg" viewBox="0 0 2000 2000">
  <g>
    <path d="M831.31,948.46c24.06,0,40.58,12.27,48.12,25.71v-23.59h21.7v129.28h-21.7v-24.06c-7.78,13.92-24.53,26.19-48.36,26.19-34.44,0-61.1-27.13-61.1-67.23s26.66-66.29,61.33-66.29ZM835.55,967.09c-23.59,0-43.64,17.22-43.64,47.65s20.05,48.36,43.64,48.36,43.88-17.69,43.88-48.13-20.29-47.89-43.88-47.89Z"/>
    <path d="M942.17,968.27h-16.75v-17.69h16.75v-32.56h21.47v32.56h33.73v17.69h-33.73v76.2c0,12.74,4.72,17.22,17.93,17.22h15.81v18.16h-19.34c-22.88,0-35.86-9.44-35.86-35.39v-76.2Z"/>
    <path d="M1079.69,1081.98c-36.57,0-64.4-25.95-64.4-67s28.78-66.52,65.35-66.52,65.35,25.71,65.35,66.52-29.49,67-66.29,67ZM1079.69,1063.11c22.41,0,44.35-15.33,44.35-48.13s-21.47-47.89-43.64-47.89-43.17,15.33-43.17,47.89,20.05,48.13,42.46,48.13Z"/>
    <path d="M1360.88,1006.72c0-26.42-14.15-39.87-35.38-39.87s-36.56,13.92-36.56,41.76v71.24h-21.23v-73.13c0-26.42-14.15-39.87-35.39-39.87s-36.56,13.92-36.56,41.76v71.24h-21.47v-129.28h21.47v18.64c8.49-13.68,23.83-21,40.81-21,21.23,0,38.92,9.44,47.42,28.78,7.55-18.64,25.95-28.78,45.77-28.78,29.49,0,52.37,18.4,52.37,55.44v76.2h-21.23v-73.13Z"/>
    <path d="M1470.56,948.46c24.06,0,40.58,12.27,48.12,25.71v-23.59h21.7v129.28h-21.7v-24.06c-7.78,13.92-24.53,26.19-48.36,26.19-34.44,0-61.1-27.13-61.1-67.23s26.66-66.29,61.33-66.29ZM1474.8,967.09c-23.59,0-43.64,17.22-43.64,47.65s20.05,48.36,43.64,48.36,43.88-17.69,43.88-48.13-20.29-47.89-43.88-47.89Z"/>
  </g>
  <g>
    <circle cx="521.81" cy="933.26" r="62.2"/>
    <circle cx="653.34" cy="933.26" r="62.2"/>
    <circle cx="521.81" cy="1066.74" r="62.2"/>
    <circle cx="653.34" cy="1066.74" r="62.2"/>
  </g>
</svg>